<?xml version="1.0" encoding="UTF-8" standalone="no"?>
<svg
   width="405"
   zoomAndPan="magnify"
   viewBox="0 0 303.75 303.74999"
   height="405"
   preserveAspectRatio="xMidYMid"
   version="1.0"
   id="svg35"
   sodipodi:docname="tg.svg"
   inkscape:version="1.3.2 (091e20ef0f, 2023-11-25)"
   xmlns:inkscape="http://www.inkscape.org/namespaces/inkscape"
   xmlns:sodipodi="http://sodipodi.sourceforge.net/DTD/sodipodi-0.dtd"
   xmlns="http://www.w3.org/2000/svg"
   xmlns:svg="http://www.w3.org/2000/svg">
  <sodipodi:namedview
     id="namedview35"
     pagecolor="#ffffff"
     bordercolor="#666666"
     borderopacity="1.0"
     inkscape:showpageshadow="2"
     inkscape:pageopacity="0.0"
     inkscape:pagecheckerboard="0"
     inkscape:deskcolor="#d1d1d1"
     inkscape:zoom="2.33"
     inkscape:cx="250"
     inkscape:cy="250"
     inkscape:window-width="2560"
     inkscape:window-height="1371"
     inkscape:window-x="0"
     inkscape:window-y="0"
     inkscape:window-maximized="1"
     inkscape:current-layer="svg35" />
  <defs
     id="defs2">
    <g
       id="g1" />
    <clipPath
       id="4433d04c4b">
      <path
         d="M 35.753906,0 H 339.50391 V 303.75 H 35.753906 Z m 0,0"
         clip-rule="nonzero"
         id="path1" />
    </clipPath>
    <clipPath
       id="bbf0cb283b">
      <path
         d="m 163.47656,130.97266 h 50.25 v 50.25 h -50.25 z m 0,0"
         clip-rule="nonzero"
         id="path2" />
    </clipPath>
  </defs>
  <g
     id="g35"
     transform="translate(-35.753906)">
    <g
       clip-path="url(#4433d04c4b)"
       id="g3">
      <path
         fill="#4285f4"
         d="m 339.24609,151.74609 c 0,2.48438 -0.0625,4.96485 -0.18359,7.44532 -0.12109,2.48046 -0.30469,4.95703 -0.54688,7.42968 -0.24609,2.46875 -0.54687,4.9336 -0.91406,7.39063 -0.36328,2.45703 -0.78906,4.90234 -1.27344,7.33984 -0.48437,2.4336 -1.02734,4.85547 -1.63281,7.26563 -0.60156,2.41015 -1.26562,4.80078 -1.98437,7.17968 -0.72266,2.375 -1.5,4.73438 -2.33594,7.07032 -0.83594,2.33984 -1.73047,4.65625 -2.67969,6.94922 -0.95312,2.29296 -1.95703,4.5625 -3.01953,6.80859 -1.0625,2.24609 -2.17969,4.46484 -3.34766,6.65234 -1.17187,2.19141 -2.39453,4.35157 -3.67187,6.48047 -1.27734,2.13281 -2.60547,4.23047 -3.98438,6.29297 -1.3789,2.06641 -2.80859,4.09375 -4.28906,6.08984 -1.48047,1.9961 -3.00781,3.95313 -4.58203,5.8711 -1.57812,1.92187 -3.19922,3.80078 -4.86719,5.64062 -1.66797,1.83985 -3.3789,3.63672 -5.13281,5.39453 -1.75781,1.75782 -3.55469,3.46875 -5.39453,5.13672 -1.83984,1.66797 -3.72266,3.28907 -5.64063,4.86328 -1.91796,1.57422 -3.8789,3.10157 -5.87109,4.58204 -1.99609,1.48046 -4.02344,2.91015 -6.08984,4.28906 -2.06641,1.3789 -4.16407,2.70703 -6.29297,3.98437 -2.12891,1.27735 -4.28906,2.5 -6.48047,3.67188 -2.19141,1.17187 -4.40625,2.28515 -6.65234,3.34765 -2.2461,1.0625 -4.51563,2.07032 -6.8086,3.01954 -2.29687,0.94921 -4.61328,1.84375 -6.94922,2.67968 -2.33984,0.83594 -4.69531,1.61719 -7.07422,2.33594 -2.375,0.72266 -4.76953,1.38281 -7.17578,1.98828 -2.41015,0.60156 -4.83203,1.14844 -7.26953,1.63281 -2.43359,0.48438 -4.8789,0.90625 -7.33594,1.27344 -2.45703,0.36328 -4.92187,0.66797 -7.39453,0.91016 -2.46875,0.24219 -4.94531,0.42578 -7.42578,0.54687 -2.48047,0.1211 -4.96484,0.1836 -7.44531,0.1836 -2.48438,0 -4.96484,-0.0625 -7.44531,-0.1836 -2.48047,-0.12109 -4.95703,-0.30468 -7.42969,-0.54687 -2.47266,-0.24219 -4.93359,-0.54688 -7.39063,-0.91016 -2.45703,-0.36719 -4.90234,-0.78906 -7.33984,-1.27344 -2.4375,-0.48437 -4.85937,-1.03125 -7.26562,-1.63281 -2.41016,-0.60547 -4.80469,-1.26562 -7.17969,-1.98828 -2.375,-0.71875 -4.73438,-1.5 -7.07031,-2.33594 -2.33985,-0.83593 -4.65625,-1.73047 -6.94922,-2.67968 -2.29688,-0.94922 -4.56641,-1.95704 -6.8125,-3.01954 -2.24219,-1.0625 -4.46094,-2.17578 -6.65235,-3.34765 -2.1875,-1.17188 -4.34765,-2.39453 -6.48046,-3.67188 -2.12891,-1.27734 -4.22657,-2.60547 -6.29297,-3.98437 -2.0625,-1.37891 -4.093754,-2.8086 -6.085941,-4.28906 -1.996094,-1.48047 -3.953125,-3.00782 -5.875,-4.58204 -1.917969,-1.57421 -3.796875,-3.19531 -5.636719,-4.86328 -1.839844,-1.66797 -3.640625,-3.3789 -5.394531,-5.13672 -1.757813,-1.75781 -3.46875,-3.55468 -5.136719,-5.39453 -1.667969,-1.83984 -3.289062,-3.71875 -4.863281,-5.64062 -1.578125,-1.91797 -3.105469,-3.875 -4.585938,-5.8711 -1.476562,-1.99609 -2.90625,-4.02343 -4.285156,-6.08984 -1.382813,-2.0625 -2.710937,-4.16016 -3.984375,-6.29297 -1.277344,-2.1289 -2.503906,-4.28906 -3.671875,-6.48047 -1.171875,-2.1875 -2.289063,-4.40625 -3.351563,-6.65234 -1.058593,-2.24609 -2.066406,-4.51563 -3.015624,-6.80859 -0.953126,-2.29297 -1.84375,-4.60938 -2.679688,-6.94922 -0.839844,-2.33594 -1.617188,-4.69532 -2.339844,-7.07032 -0.71875,-2.3789 -1.382812,-4.76953 -1.984375,-7.17968 -0.605469,-2.41016 -1.148437,-4.83203 -1.632812,-7.26563 -0.484375,-2.4375 -0.910157,-4.88281 -1.273438,-7.33984 -0.363281,-2.45703 -0.667969,-4.92188 -0.910156,-7.39063 -0.246094,-2.47265 -0.425781,-4.94922 -0.550781,-7.42968 -0.121094,-2.48047 -0.179688,-4.96094 -0.179688,-7.44532 0,-2.48437 0.05859,-4.96484 0.179688,-7.44531 0.125,-2.48047 0.304687,-4.95703 0.550781,-7.42969 0.242187,-2.46875 0.546875,-4.93359 0.910156,-7.39062 0.363281,-2.45703 0.789063,-4.90234 1.273438,-7.33984 0.484375,-2.4336 1.027343,-4.85547 1.632812,-7.26563 0.601563,-2.41016 1.265625,-4.80078 1.984375,-7.17969 0.722656,-2.375 1.5,-4.73437 2.339844,-7.07031 0.835938,-2.339844 1.726562,-4.65625 2.679688,-6.949219 0.949218,-2.292969 1.957031,-4.566406 3.015624,-6.808593 1.0625,-2.246094 2.179688,-4.464844 3.351563,-6.652344 1.167969,-2.191406 2.394531,-4.351563 3.671875,-6.480469 1.273438,-2.132813 2.601562,-4.230469 3.984375,-6.292969 1.378906,-2.066406 2.808594,-4.09375 4.285156,-6.089844 1.480469,-1.996093 3.007813,-3.953124 4.585938,-5.871093 1.574219,-1.921875 3.195312,-3.800781 4.863281,-5.640625 1.667969,-1.839844 3.378906,-3.636719 5.136719,-5.394532 1.753906,-1.757812 3.554687,-3.46875 5.394531,-5.136718 1.839844,-1.667969 3.71875,-3.289063 5.636719,-4.863282 1.921875,-1.574218 3.878906,-3.101562 5.875,-4.582031 1.992187,-1.480469 4.023441,-2.910156 6.085941,-4.289062 2.0664,-1.378907 4.16406,-2.707031 6.29297,-3.984375 2.13281,-1.277344 4.29296,-2.5 6.48046,-3.671875 2.19141,-1.171875 4.41016,-2.285157 6.65235,-3.347657 2.24609,-1.0625 4.51562,-2.070312 6.8125,-3.019531 2.29297,-0.949219 4.60937,-1.84375 6.94922,-2.679687 2.33593,-0.835938 4.69531,-1.617188 7.07031,-2.335938 2.375,-0.722656 4.76953,-1.382812 7.17969,-1.988281 2.40625,-0.601563 4.82812,-1.148437 7.26562,-1.632813 2.4375,-0.484374 4.88281,-0.90625 7.33984,-1.273437 2.45704,-0.363281 4.91797,-0.667969 7.39063,-0.910156 2.47266,-0.242188 4.94922,-0.425781 7.42969,-0.546875 C 182.53516,0.0625 185.01562,0 187.5,0 c 2.48047,0 4.96484,0.0625 7.44531,0.183594 2.48047,0.121094 4.95703,0.304687 7.42578,0.546875 2.47266,0.242187 4.9375,0.546875 7.39453,0.910156 2.45704,0.367187 4.90235,0.789063 7.33594,1.273437 2.4375,0.484376 4.85938,1.03125 7.26953,1.632813 2.40625,0.605469 4.80078,1.265625 7.17578,1.988281 2.37891,0.71875 4.73438,1.5 7.07422,2.335938 2.33594,0.835937 4.65235,1.730468 6.94922,2.679687 2.29297,0.949219 4.5625,1.957031 6.8086,3.019531 2.24609,1.0625 4.46093,2.175782 6.65234,3.347657 2.19141,1.171875 4.35156,2.394531 6.48047,3.671875 2.1289,1.277344 4.22656,2.605468 6.29297,3.984375 2.0664,1.378906 4.09375,2.808593 6.08984,4.289062 1.99219,1.480469 3.95313,3.007813 5.87109,4.582031 1.91797,1.574219 3.80079,3.195313 5.64063,4.863282 1.83984,1.667968 3.63672,3.378906 5.39453,5.136718 1.75391,1.757813 3.46484,3.554688 5.13281,5.394532 1.66797,1.839844 3.28907,3.71875 4.86719,5.640625 1.57422,1.917969 3.10156,3.875 4.58203,5.871093 1.48047,1.996094 2.91016,4.023438 4.28906,6.089844 1.37891,2.0625 2.70704,4.160156 3.98438,6.292969 1.27734,2.128906 2.5,4.289063 3.67187,6.480469 1.16797,2.1875 2.28516,4.40625 3.34766,6.652344 1.0625,2.242187 2.06641,4.515624 3.01953,6.808593 0.94922,2.292969 1.84375,4.609375 2.67969,6.949219 0.83594,2.33594 1.61328,4.69531 2.33594,7.07031 0.71875,2.37891 1.38281,4.76953 1.98437,7.17969 0.60547,2.41016 1.14844,4.83203 1.63281,7.26563 0.48438,2.4375 0.91016,4.88281 1.27344,7.33984 0.36719,2.45703 0.66797,4.92187 0.91406,7.39062 0.24219,2.47266 0.42579,4.94922 0.54688,7.42969 0.12109,2.48047 0.18359,4.96094 0.18359,7.44531 z m 0,0"
         fill-opacity="1"
         fill-rule="nonzero"
         id="path3" />
    </g>
    <path
       fill="#e0e0e0"
       d="m 262.17578,109.73828 c -4.66797,-0.22656 -8.76562,-1.82031 -12.17969,-4.55078 l -35.0625,31.875 c 8.99219,12.17969 8.42578,28.91406 -1.36718,40.41016 l 33.69921,35.0625 c 10.69922,-6.71485 24.92969,1.02343 24.92969,13.88671 0,8.9961 -7.40234,16.28125 -16.39453,16.28125 -8.65234,0 -15.70703,-6.71875 -16.27734,-15.2539 l -35.85938,-5.23828 c -5.46484,12.17968 -23.79297,8.19531 -23.79297,-5.1211 0,-6.83203 5.57813,-12.41015 12.41016,-12.41015 6.375,0 11.60937,4.66797 12.40625,10.8164 l 35.85937,5.23438 c 0.45704,-1.25 1.02344,-2.39063 1.82032,-3.41406 l -33.69532,-35.0625 c -12.17968,9.44921 -29.2539,9.10937 -41.09375,-0.6836 l -43.37499,42.34766 c 6.83203,10.70312 -0.91016,25.04687 -13.77344,25.04687 -8.99219,0 -16.277346,-7.40234 -16.277346,-16.39453 0,-7.39844 5.007812,-13.77344 11.953126,-15.70703 L 104.625,193.52344 c -7.855469,-1.25 -13.886719,-7.96875 -13.886719,-16.16407 0,-10.47265 9.675779,-18.21484 19.917969,-15.9375 l 10.58984,-23.44921 c -17.1914,-11.5 -8.99609,-38.476566 11.72266,-38.476566 11.5,0 20.94922,9.445316 20.94922,21.058596 0,13.88672 -13.20703,23.79297 -26.52734,20.26172 l -10.58594,23.45312 c 10.92969,8.08203 7.6289,25.15625 -5.35156,28.80078 l 1.36718,23.44922 c 2.50391,0.34375 4.66797,1.25391 6.71875,2.50391 l 43.3711,-42.34766 c -16.96094,-21.28516 -1.70704,-53.04687 25.61328,-53.04687 8.42578,0 16.05078,3.1875 21.85547,8.42187 l 35.0625,-31.875 c -2.27735,-3.527342 -3.52735,-7.851561 -3.30079,-12.406249 L 194.55859,77.636719 c -7.17187,15.9375 -31.19531,10.816406 -31.19531,-6.714844 0,-8.992187 7.28906,-16.28125 16.28125,-16.28125 8.99219,0 16.27734,7.289063 16.27734,16.28125 l 47.58594,10.246094 c 3.07422,-7.855469 10.69922,-13.433594 19.57813,-13.433594 11.61328,0 20.94922,9.449219 20.94922,21.058594 0,9.5625 -6.375,17.644531 -15.14063,20.148441 l 4.89453,42.23437 c 5.91797,0.91016 10.47266,6.03516 10.47266,12.18359 0,6.94141 -5.57813,12.51954 -12.41016,12.51954 -13.54687,0 -17.1875,-18.78125 -4.78125,-23.90625 z m -73.65234,20.71875 c -14.23047,0 -25.95703,11.61328 -25.95703,25.95703 0,14.34375 11.72656,25.95313 25.95703,25.95313 14.34375,0 25.95312,-11.60938 25.95312,-25.95313 0,-14.34375 -11.60937,-25.95703 -25.95312,-25.95703 z m -8.87891,-68.984374 c -5.23828,0 -9.44922,4.210938 -9.44922,9.449219 0,5.234375 4.21094,9.5625 9.44922,9.5625 5.23438,0 9.5625,-4.328125 9.5625,-9.5625 0,-5.238281 -4.32812,-9.449219 -9.5625,-9.449219 z m 91.64063,96.308594 c -7.28907,1.02344 -6.26172,11.26953 0.5664,11.26953 7.74219,0 7.17188,-12.06641 -0.5664,-11.26953 z m -163.69922,29.02734 c 12.40625,-0.91015 11.49609,-19.01172 -0.45703,-19.01172 -5.23438,0 -9.562504,4.32813 -9.562504,9.5625 0,5.46485 4.667974,9.78907 10.019534,9.44922 z m 138.88281,38.13672 c -0.79688,6.03125 3.64062,11.03906 9.33203,11.03906 5.23828,0 9.5625,-4.32421 9.5625,-9.5625 0,-11.72265 -17.30078,-12.86328 -18.89453,-1.47656 z m -54.1875,-13.43359 c -7.40234,0 -7.40234,11.26953 0,11.26953 7.51172,0 7.39844,-11.26953 0,-11.26953 z m -59.3125,-105.1875 c -7.85156,0 -14.22656,6.375 -14.22656,14.23047 0,7.85547 6.375,14.23047 14.22656,14.23047 7.74219,0 14.11719,-6.375 14.11719,-14.23047 0,-7.85547 -6.375,-14.23047 -14.11719,-14.23047 z m -22.53906,116.79687 c -5.1211,0 -9.44922,4.21485 -9.44922,9.44922 0,5.23828 4.21484,9.5625 9.44922,9.5625 5.23828,0 9.5625,-4.32422 9.5625,-9.5625 0,-5.23437 -4.32422,-9.44922 -9.5625,-9.44922 z M 263.08594,74.5625 c -7.85547,0 -14.22657,6.375 -14.22657,14.230469 0,7.855469 6.3711,14.230471 14.22657,14.230471 7.85547,0 14.23047,-6.375002 14.23047,-14.230471 0,-7.855469 -6.375,-14.230469 -14.23047,-14.230469 z m 0,0"
       fill-opacity="1"
       fill-rule="evenodd"
       id="path4" />
    <g
       clip-path="url(#bbf0cb283b)"
       id="g5">
      <path
         fill="#2ecc71"
         d="m 163.47656,156.26172 8.91406,-2.67578 c 1.6211,-0.48438 3.15625,-1.16016 4.60938,-2.02735 1.44922,-0.86718 2.77344,-1.89843 3.96875,-3.09375 1.19531,-1.19922 2.22656,-2.51953 3.09375,-3.97265 0.86719,-1.45313 1.54297,-2.98828 2.03125,-4.60938 l 2.67187,-8.91015 2.67579,8.91406 c 0.48437,1.62109 1.16015,3.15625 2.02734,4.60937 0.86719,1.44922 1.89844,2.77344 3.09375,3.96875 1.19531,1.19532 2.51953,2.22657 3.96875,3.09375 1.45312,0.86719 2.98828,1.54297 4.60937,2.02735 l 8.91407,2.67578 -8.91407,2.67187 c -1.62109,0.48828 -3.15625,1.16407 -4.60546,2.03125 -1.45313,0.86719 -2.77735,1.89844 -3.97266,3.09375 -1.19531,1.19532 -2.22656,2.51953 -3.09375,3.96875 -0.86328,1.45313 -1.54297,2.98828 -2.02734,4.60547 l -2.67579,8.91797 -2.67578,-8.91406 c -0.48437,-1.6211 -1.16015,-3.15625 -2.02734,-4.60547 -0.86719,-1.45313 -1.89844,-2.77734 -3.09375,-3.97266 -1.19531,-1.19531 -2.51953,-2.22656 -3.97266,-3.09375 -1.44922,-0.86718 -2.98437,-1.54297 -4.60547,-2.02734 z m 0,0"
         fill-opacity="1"
         fill-rule="nonzero"
         id="path5" />
    </g>
  </g>
</svg>
